<svg xmlns="http://www.w3.org/2000/svg" viewBox="0 0 24 24" fill="#4285F4">
    <path
        d="M12.87 15.07l-2.54-2.51.03-.03c1.74-1.94 2.01-4.65.77-6.67l2.16-2.16c.28-.28.28-.72 0-1s-.72-.28-1 0L10.1 4.72c-2.02-1.24-4.73-.97-6.67.77l-.03.03-2.51-2.54c-.28-.28-.72-.28-1 0s-.28.72 0 1l2.51 2.54-.03.03c-1.74 1.94-2.01 4.65-.77 6.67l-2.16 2.16c-.28.28-.28.72 0 1s.72.28 1 0l2.16-2.16c2.02 1.24 4.73.97 6.67-.77l.03-.03 2.51 2.54c.28.28.72.28 1 0s.28-.72 0-1z" />
    <path
        d="M12 2C6.48 2 2 6.48 2 12s4.48 10 10 10 10-4.48 10-10S17.52 2 12 2zm-1 17.93c-3.94-.49-7-3.85-7-7.93 0-.62.08-1.21.21-1.79L9 15v1c0 1.1.9 2 2 2v1.93zm6.9-2.54c-.26-.81-1-1.39-1.9-1.39h-1v-3c0-.55-.45-1-1-1H8v-2h2c.55 0 1-.45 1-1V7h2c1.1 0 2-.9 2-2v-.41c2.93 1.19 5 4.06 5 7.41 0 2.08-.8 3.97-2.1 5.39z" />
</svg>